<?xml version="1.0" encoding="UTF-8"?>
<svg id="Capa_8_copia" data-name="Capa 8 copia" xmlns="http://www.w3.org/2000/svg" viewBox="0 0 500 500">
  <defs>
    <style>
      .cls-1 {
        fill: none;
        stroke: #ff8533;
        stroke-miterlimit: 10;
        stroke-width: 3.05px;
      }

      .cls-2 {
        fill: #fff;
      }

      .cls-3 {
        fill: #ff8533;
      }

      .cls-4 {
        fill: #3a3a3a;
      }
    </style>
  </defs>
  <path class="cls-4" d="M153.09,162.89l-1.89,18.79v77.82c6.68.76,16.28,1.48,27.84,1.03,16.34-.64,24.5-.97,32.55-6.02,13.59-8.53,17.52-23.47,18.33-26.54,2.96-11.24.68-17.07.11-19.38-.87-3.56-1.88-5.79-2.85-7.84h-58.61v-19.01s-2.38-12-15.48-18.86Z"/>
  <path class="cls-3" d="M128.63,162.36v142.21h55.44s-9.64-28.67-1.44-56.17c2.46-3.08,25.5,2.26,32.48-33.44,0-7.18.21-14.2.21-14.2h-18.73s-5.68-20.61-40.15-18.42c-5.92-8.28-15.82-17.72-27.81-19.98Z"/>
  <path class="cls-2" d="M150.3,189.16c33.1-5.74,41.72,17.71,41.72,17.71,0,0,17.23.41,23.18,0,1.64,9.23,10.63,7.93,10.63,7.93.05,2.22-.1,5.39-1.09,9.03-2.45,8.99-8.3,14.51-10.94,16.69-8.71,7.18-18.69,7.78-25.72,8.21-5.14.31-9.41-.11-12.31-.55-8.48,34.74,0,56.39,0,56.39h-47.15v-109.12l21.67-6.29Z"/>
  <path class="cls-4" d="M128.63,167.76v136.82h45.51s-38.3-28.48-27.08-74.17c1.41-.04,3.43-.29,5.47-1.37,7.03-3.7,7.9-13.73,8.21-17.23,1.41-16.16-11.72-28.87-14.5-31.46,0,0-8.58-10.12-17.6-12.58Z"/>
  <circle class="cls-4" cx="177.05" cy="207.11" r="4.13"/>
  <path class="cls-4" d="M342.01,294c0,2.28-1.85,4.13-4.13,4.13-.22,0-.43-.02-.65-.05-1.59-1.12-2.57-1.87-4.52-1.87s-2.96.89-4.57,1.91c-.08.02-.16.02-.24.02-2.28,0-4.13-1.85-4.13-4.13,0-1.02.37-1.95.98-2.67h0s0,0,0-.02c.27-.31.58-.59.93-.81.86-.83,1.42-1.62,1.79-2.24.68-1.15.68-1.67,1.47-2.62.49-.6,1.37-1.64,2.86-1.99,1.86-.43,3.39.53,3.73.73,1.45.91,2.08,2.3,2.26,2.73.3.67.24.89.55,1.5.68,1.34,1.64,1.4,2.06,2.09h0c.98.77,1.61,1.95,1.61,3.29Z"/>
  <circle class="cls-4" cx="327.74" cy="294.36" r="3.78"/>
  <circle class="cls-4" cx="337.88" cy="294.36" r="3.78"/>
  <ellipse class="cls-4" cx="337.38" cy="278.34" rx="4.5" ry="3.62" transform="translate(6.48 564.35) rotate(-80.36)"/>
  <ellipse class="cls-4" cx="328.22" cy="278.34" rx="3.62" ry="4.5" transform="translate(-41.97 58.88) rotate(-9.64)"/>
  <ellipse class="cls-4" cx="343.54" cy="285.21" rx="3.85" ry="3.1" transform="translate(4.84 576.14) rotate(-80.36)"/>
  <ellipse class="cls-4" cx="322.28" cy="284.88" rx="3.1" ry="3.85" transform="translate(-43.15 57.98) rotate(-9.64)"/>
  <circle class="cls-1" cx="332.8" cy="284.88" r="17.47"/>
  <g>
    <path class="cls-4" d="M204.64,305.08c-4.33,0-8.12-.86-11.35-2.59-3.24-1.73-5.74-4.09-7.52-7.08-1.78-2.99-2.67-6.44-2.67-10.33s.86-7.34,2.59-10.33c1.73-2.99,4.11-5.35,7.15-7.08,3.04-1.73,6.51-2.59,10.4-2.59s7.18.84,10.15,2.52,5.3,4.03,7.01,7.04c1.7,3.02,2.55,6.59,2.55,10.73,0,.34-.01.77-.04,1.28-.03.51-.06.96-.11,1.35h-32.48v-6.06h27.67l-3.65,1.9c.05-2.19-.4-4.15-1.35-5.88-.95-1.73-2.25-3.07-3.91-4.01-1.66-.95-3.6-1.42-5.84-1.42s-4.15.47-5.88,1.42c-1.73.95-3.05,2.3-3.98,4.05-.92,1.75-1.39,3.77-1.39,6.06v1.46c0,2.34.52,4.41,1.57,6.21,1.05,1.8,2.54,3.2,4.49,4.2,1.95,1,4.21,1.5,6.79,1.5,2.19,0,4.16-.36,5.91-1.09,1.75-.73,3.31-1.8,4.67-3.21l4.96,5.69c-1.8,2.04-4.03,3.6-6.68,4.67-2.65,1.07-5.68,1.61-9.09,1.61Z"/>
    <path class="cls-4" d="M225.08,272.89v-7.3h25.99v7.3h-25.99ZM244.93,305.08c-4.28,0-7.59-1.11-9.93-3.32-2.34-2.21-3.5-5.46-3.5-9.75v-35.04h9.05v34.75c0,1.85.49,3.28,1.46,4.31.97,1.02,2.34,1.53,4.09,1.53,2,0,3.65-.54,4.96-1.61l2.63,6.5c-1.12.88-2.46,1.53-4.01,1.97-1.56.44-3.14.66-4.75.66Z"/>
    <path class="cls-4" d="M264.35,259.17c-1.7,0-3.1-.54-4.2-1.61-1.1-1.07-1.64-2.38-1.64-3.94,0-1.46.55-2.73,1.64-3.8,1.09-1.07,2.49-1.61,4.2-1.61s3.1.5,4.2,1.5c1.09,1,1.64,2.28,1.64,3.83s-.54,2.88-1.61,3.98c-1.07,1.1-2.48,1.64-4.23,1.64ZM259.83,304.57v-38.98h9.05v38.98h-9.05Z"/>
    <path class="cls-4" d="M297.27,305.08c-4.09,0-7.73-.86-10.91-2.59s-5.68-4.09-7.48-7.08c-1.8-2.99-2.7-6.44-2.7-10.33s.9-7.4,2.7-10.37c1.8-2.97,4.29-5.32,7.48-7.04,3.19-1.73,6.83-2.59,10.91-2.59,3.75,0,7.08.78,10,2.34,2.92,1.56,5.11,3.82,6.57,6.79l-6.94,4.09c-1.17-1.8-2.59-3.15-4.27-4.05s-3.49-1.35-5.44-1.35c-2.24,0-4.26.5-6.06,1.5-1.8,1-3.21,2.41-4.23,4.23-1.02,1.82-1.53,3.98-1.53,6.46s.51,4.65,1.53,6.5c1.02,1.85,2.43,3.27,4.23,4.27,1.8,1,3.82,1.5,6.06,1.5,1.95,0,3.76-.45,5.44-1.35s3.1-2.27,4.27-4.12l6.94,4.09c-1.46,2.92-3.65,5.17-6.57,6.75-2.92,1.58-6.25,2.37-10,2.37Z"/>
  </g>
  <path class="cls-4" d="M356.33,304.57v-54.17h9.05v54.17h-9.05Z"/>
</svg>